<svg width="29" height="23" viewBox="0 0 29 23" fill="none" xmlns="http://www.w3.org/2000/svg">
<g clip-path="url(#clip0_1_245)">
<path d="M15.955 0.808594C15.6882 0.314453 15.1243 0 14.505 0C13.8858 0 13.3269 0.314453 13.055 0.808594L9.81771 6.75176L2.58785 7.7041C1.98368 7.78496 1.48021 8.1623 1.29392 8.67891C1.10764 9.19551 1.25868 9.76602 1.69167 10.1479L6.93785 14.7793L5.69931 21.3244C5.59861 21.8635 5.85035 22.4115 6.34878 22.7305C6.84722 23.0494 7.50677 23.0898 8.05052 22.8338L14.5101 19.7566L20.9696 22.8338C21.5134 23.0898 22.1729 23.0539 22.6714 22.7305C23.1698 22.407 23.4215 21.8635 23.3208 21.3244L22.0773 14.7793L27.3234 10.1479C27.7564 9.76602 27.9125 9.19551 27.7212 8.67891C27.5299 8.1623 27.0314 7.78496 26.4273 7.7041L19.1924 6.75176L15.955 0.808594Z" fill="white"/>
</g>
<defs>
<clipPath id="clip0_1_245">
<rect width="29" height="23" fill="white"/>
</clipPath>
</defs>
</svg>
