<svg width="26" height="22" viewBox="0 0 26 22" fill="none" xmlns="http://www.w3.org/2000/svg">
<path d="M23.3275 5.78846C23.344 6.01482 23.344 6.24123 23.344 6.46759C23.344 13.3719 17.9823 21.3272 8.18277 21.3272C5.16371 21.3272 2.35915 20.4702 0 18.9827C0.428951 19.0312 0.841347 19.0473 1.2868 19.0473C3.77789 19.0473 6.07107 18.2227 7.9023 16.816C5.55965 16.7675 3.59644 15.2637 2.92003 13.194C3.25001 13.2425 3.57994 13.2749 3.92642 13.2749C4.40483 13.2749 4.8833 13.2102 5.3287 13.097C2.88708 12.6119 1.0558 10.5099 1.0558 7.97133V7.90668C1.76516 8.29475 2.59011 8.53728 3.46441 8.56959C2.02913 7.63174 1.08881 6.031 1.08881 4.22002C1.08881 3.24988 1.35272 2.36056 1.81468 1.58443C4.43779 4.75362 8.38072 6.82326 12.802 7.04967C12.7195 6.6616 12.67 6.25741 12.67 5.85317C12.67 2.97499 15.0457 0.630463 17.9987 0.630463C19.533 0.630463 20.9188 1.26107 21.8921 2.27973C23.0964 2.05338 24.2512 1.61678 25.2741 1.01853C24.8781 2.23126 24.0368 3.24993 22.9315 3.89666C24.0038 3.78353 25.0432 3.49241 26 3.08822C25.2742 4.12302 24.3668 5.04463 23.3275 5.78846Z" fill="#123D6D"/>
</svg>
