<svg width="22" height="23" viewBox="0 0 22 23" fill="none" xmlns="http://www.w3.org/2000/svg">
<path d="M11.0025 5.96087C7.88098 5.96087 5.36319 8.43773 5.36319 11.5085C5.36319 14.5792 7.88098 17.056 11.0025 17.056C14.1239 17.056 16.6417 14.5792 16.6417 11.5085C16.6417 8.43773 14.1239 5.96087 11.0025 5.96087ZM11.0025 15.1151C8.98528 15.1151 7.3362 13.4977 7.3362 11.5085C7.3362 9.51924 8.98037 7.9018 11.0025 7.9018C13.0245 7.9018 14.6687 9.51924 14.6687 11.5085C14.6687 13.4977 13.0196 15.1151 11.0025 15.1151ZM18.1877 5.73395C18.1877 6.45334 17.5988 7.0279 16.8724 7.0279C16.1411 7.0279 15.5571 6.44852 15.5571 5.73395C15.5571 5.01937 16.146 4.43999 16.8724 4.43999C17.5988 4.43999 18.1877 5.01937 18.1877 5.73395ZM21.9227 7.04721C21.8393 5.31389 21.4368 3.77853 20.146 2.51354C18.8601 1.24856 17.2994 0.852649 15.5374 0.765741C13.7215 0.664349 8.27853 0.664349 6.46258 0.765741C4.70552 0.84782 3.14479 1.24373 1.85399 2.50872C0.56319 3.7737 0.165644 5.30906 0.0773006 7.04238C-0.0257669 8.82881 -0.0257669 14.1833 0.0773006 15.9697C0.160736 17.703 0.56319 19.2384 1.85399 20.5034C3.14479 21.7684 4.70061 22.1643 6.46258 22.2512C8.27853 22.3526 13.7215 22.3526 15.5374 22.2512C17.2994 22.1691 18.8601 21.7732 20.146 20.5034C21.4319 19.2384 21.8344 17.703 21.9227 15.9697C22.0258 14.1833 22.0258 8.83364 21.9227 7.04721ZM19.5767 17.8865C19.1939 18.8328 18.4528 19.5619 17.4859 19.9433C16.038 20.5082 12.6025 20.3778 11.0025 20.3778C9.40245 20.3778 5.96196 20.5034 4.51902 19.9433C3.55705 19.5667 2.81595 18.8376 2.42822 17.8865C1.85399 16.4622 1.9865 13.0824 1.9865 11.5085C1.9865 9.93447 1.8589 6.54991 2.42822 5.13042C2.81104 4.1841 3.55215 3.45504 4.51902 3.07361C5.96687 2.50872 9.40245 2.63908 11.0025 2.63908C12.6025 2.63908 16.0429 2.51354 17.4859 3.07361C18.4479 3.45021 19.189 4.17927 19.5767 5.13042C20.1509 6.55474 20.0184 9.93447 20.0184 11.5085C20.0184 13.0824 20.1509 16.467 19.5767 17.8865Z" fill="#123D6D"/>
</svg>
