<svg width="28" height="30" viewBox="0 0 28 30" fill="none" xmlns="http://www.w3.org/2000/svg">
<path d="M27.099 9.72348C27.099 3.36127 22.9686 1.4958 22.9686 1.4958C18.9153 -0.382755 8.15072 -0.363118 4.13635 1.4958C4.13635 1.4958 0.00528819 3.36127 0.00528819 9.72348C0.00528819 17.2966 -0.4226 26.7025 6.85344 28.6465C9.47976 29.3469 11.7365 29.4974 13.5525 29.3927C16.8466 29.2094 18.6949 28.2079 18.6949 28.2079L18.5847 25.7927C18.5847 25.7927 16.2307 26.5388 13.5849 26.4537C10.9651 26.3621 8.20388 26.1657 7.77405 22.9192C7.73419 22.6176 7.7147 22.3136 7.7157 22.0094C13.2672 23.3774 18.0012 22.605 19.3043 22.4479C22.9427 22.0094 26.1116 19.7446 26.5155 17.6762C27.1509 14.4166 27.099 9.72348 27.099 9.72348ZM22.2289 17.9184H19.2058V10.4435C19.2058 7.19038 15.0566 7.06601 15.0566 10.8951V14.9861H12.0529V10.8945C12.0529 7.06536 7.90371 7.18972 7.90371 10.4428V17.9178H4.87413C4.87413 9.92574 4.53701 8.237 6.06768 6.46317C7.74682 4.57153 11.2425 4.44716 12.7991 6.86245L13.5512 8.13882L14.3032 6.86245C15.8663 4.43407 19.3679 4.58462 21.0347 6.46317C22.5718 8.25009 22.2276 9.93228 22.2276 17.9178L22.2289 17.9184Z" fill="white"/>
</svg>
