<svg width="33" height="34" viewBox="0 0 33 34" fill="none" xmlns="http://www.w3.org/2000/svg">
<g clip-path="url(#clip0_1_292)">
<path d="M11.3933 26.0116C11.3933 26.1425 11.2428 26.2472 11.053 26.2472C10.837 26.2669 10.6864 26.1621 10.6864 26.0116C10.6864 25.8807 10.837 25.7759 11.0268 25.7759C11.2231 25.7563 11.3933 25.861 11.3933 26.0116ZM9.35768 25.717C9.31187 25.8479 9.44278 25.9985 9.63914 26.0378C9.80932 26.1032 10.0057 26.0378 10.045 25.9069C10.0842 25.7759 9.95987 25.6254 9.7635 25.5665C9.59332 25.5207 9.4035 25.5861 9.35768 25.717ZM12.2508 25.6058C12.061 25.6516 11.9301 25.7759 11.9497 25.9265C11.9693 26.0574 12.1395 26.1425 12.3359 26.0967C12.5257 26.0509 12.6566 25.9265 12.637 25.7956C12.6173 25.6712 12.4406 25.5861 12.2508 25.6058ZM16.5577 0.523438C7.47913 0.523438 0.534363 7.41584 0.534363 16.4944C0.534363 23.7534 5.10312 29.9651 11.629 32.1513C12.4668 32.3018 12.7613 31.7847 12.7613 31.3592C12.7613 30.9534 12.7417 28.7149 12.7417 27.3403C12.7417 27.3403 8.15986 28.3221 7.19767 25.3898C7.19767 25.3898 6.45149 23.485 5.37803 22.9941C5.37803 22.9941 3.87911 21.9665 5.48275 21.9861C5.48275 21.9861 7.11258 22.117 8.00931 23.6748C9.44278 26.2014 11.845 25.4749 12.781 25.0428C12.9315 23.9956 13.357 23.269 13.8283 22.837C10.1693 22.4312 6.47767 21.901 6.47767 15.6042C6.47767 13.8042 6.97513 12.901 8.0224 11.749C7.85222 11.3235 7.29585 9.56931 8.19259 7.30457C9.56059 6.87911 12.709 9.07185 12.709 9.07185C14.0181 8.7053 15.4254 8.51548 16.8195 8.51548C18.2137 8.51548 19.621 8.7053 20.9301 9.07185C20.9301 9.07185 24.0785 6.87256 25.4465 7.30457C26.3432 9.57585 25.7869 11.3235 25.6167 11.749C26.664 12.9075 27.3054 13.8108 27.3054 15.6042C27.3054 21.9206 23.4501 22.4247 19.7912 22.837C20.3934 23.3541 20.9039 24.3359 20.9039 25.8741C20.9039 28.08 20.8843 30.8094 20.8843 31.3462C20.8843 31.7716 21.1854 32.2887 22.0167 32.1382C28.5622 29.9651 33 23.7534 33 16.4944C33 7.41584 25.6363 0.523438 16.5577 0.523438ZM6.89658 23.0988C6.81149 23.1643 6.83112 23.3148 6.9424 23.4392C7.04713 23.5439 7.19767 23.5898 7.28276 23.5047C7.36786 23.4392 7.34822 23.2887 7.23695 23.1643C7.13222 23.0596 6.98167 23.0137 6.89658 23.0988ZM6.18967 22.5687C6.14385 22.6537 6.2093 22.7585 6.34021 22.8239C6.44494 22.8894 6.57585 22.8697 6.62167 22.7781C6.66749 22.693 6.60203 22.5883 6.47112 22.5228C6.34021 22.4836 6.23549 22.5032 6.18967 22.5687ZM8.31041 24.8988C8.20568 24.9839 8.24495 25.1803 8.3955 25.3047C8.54604 25.4552 8.73586 25.4749 8.82095 25.3701C8.90604 25.285 8.86677 25.0887 8.73586 24.9643C8.59186 24.8138 8.3955 24.7941 8.31041 24.8988ZM7.56422 23.9367C7.45949 24.0021 7.45949 24.1723 7.56422 24.3228C7.66895 24.4734 7.84568 24.5388 7.93077 24.4734C8.0355 24.3883 8.0355 24.2181 7.93077 24.0676C7.83913 23.917 7.66895 23.8516 7.56422 23.9367Z" fill="white"/>
</g>
<defs>
<clipPath id="clip0_1_292">
<rect width="32.4656" height="33.5129" fill="white" transform="translate(0.534363)"/>
</clipPath>
</defs>
</svg>
