<svg width="43" height="34" viewBox="0 0 43 34" fill="none" xmlns="http://www.w3.org/2000/svg">
<path d="M34.4929 4.57132C34.4821 4.55059 34.4643 4.53435 34.4426 4.5255C31.9356 3.3806 29.2901 2.5642 26.5721 2.09673C26.5474 2.09216 26.5219 2.09546 26.4992 2.10615C26.4765 2.11684 26.4578 2.13439 26.4457 2.15629C26.0854 2.8071 25.7584 3.4756 25.4659 4.15921C22.536 3.71653 19.5559 3.71653 16.6261 4.15921C16.3316 3.47386 15.9993 2.8052 15.6308 2.15629C15.6182 2.13487 15.5993 2.11772 15.5768 2.1071C15.5542 2.09648 15.5289 2.09286 15.5043 2.09673C12.786 2.56322 10.1403 3.37968 7.63368 4.52557C7.61222 4.53462 7.59411 4.55008 7.58186 4.56981C2.56908 12.0211 1.19589 19.2891 1.86953 26.4672C1.87143 26.4848 1.87686 26.5018 1.8855 26.5173C1.89414 26.5327 1.90582 26.5463 1.91984 26.5572C4.83873 28.7084 8.10355 30.3504 11.575 31.4132C11.5994 31.4205 11.6255 31.4202 11.6498 31.4123C11.674 31.4044 11.6953 31.3893 11.7106 31.369C12.4562 30.3592 13.1169 29.2899 13.6858 28.172C13.6937 28.1567 13.6981 28.1399 13.6989 28.1227C13.6998 28.1055 13.6969 28.0883 13.6906 28.0723C13.6842 28.0563 13.6746 28.0418 13.6622 28.0298C13.6498 28.0178 13.6351 28.0085 13.6188 28.0026C12.577 27.6059 11.5685 27.1276 10.6026 26.5722C10.585 26.562 10.5703 26.5476 10.5597 26.5303C10.5491 26.513 10.5429 26.4934 10.5417 26.4732C10.5405 26.4529 10.5443 26.4327 10.5528 26.4143C10.5613 26.3959 10.5742 26.3799 10.5904 26.3676C10.7931 26.2165 10.9959 26.0593 11.1894 25.9005C11.2066 25.8864 11.2274 25.8773 11.2495 25.8744C11.2716 25.8714 11.294 25.8746 11.3144 25.8837C17.6423 28.7583 24.4932 28.7583 30.7463 25.8837C30.7666 25.8741 30.7894 25.8704 30.8118 25.8731C30.8342 25.8758 30.8553 25.8848 30.8728 25.899C31.0664 26.0578 31.2691 26.2165 31.4733 26.3676C31.4896 26.3798 31.5026 26.3957 31.5113 26.414C31.5199 26.4324 31.5239 26.4525 31.5228 26.4728C31.5218 26.493 31.5157 26.5126 31.5052 26.53C31.4947 26.5473 31.4801 26.5618 31.4627 26.5722C30.499 27.1322 29.4895 27.6102 28.445 28.0011C28.4287 28.0073 28.414 28.0167 28.4017 28.0289C28.3894 28.0411 28.3799 28.0558 28.3737 28.0719C28.3675 28.0881 28.3647 28.1053 28.3657 28.1226C28.3666 28.1398 28.3713 28.1567 28.3792 28.172C28.9577 29.2837 29.6174 30.3516 30.3529 31.3672C30.3678 31.388 30.389 31.4037 30.4133 31.4119C30.4377 31.4201 30.464 31.4205 30.4886 31.413C33.9662 30.3538 37.2367 28.7116 40.1593 26.5572C40.1735 26.5468 40.1854 26.5336 40.194 26.5183C40.2027 26.5031 40.208 26.4861 40.2096 26.4687C41.0161 18.1701 38.8594 10.9616 34.4929 4.57132ZM14.6309 22.0965C12.7257 22.0965 11.1559 20.3562 11.1559 18.219C11.1559 16.0818 12.6952 14.3414 14.6309 14.3414C16.5816 14.3414 18.1362 16.0969 18.1058 18.2189C18.1058 20.3562 16.5664 22.0965 14.6309 22.0965ZM27.479 22.0965C25.5738 22.0965 24.004 20.3562 24.004 18.219C24.004 16.0818 25.5434 14.3414 27.479 14.3414C29.4298 14.3414 30.9844 16.0969 30.9539 18.2189C30.9539 20.3562 29.4298 22.0965 27.479 22.0965Z" fill="white"/>
</svg>
