<svg width="53" height="53" viewBox="0 0 53 53" fill="none" xmlns="http://www.w3.org/2000/svg">
<path d="M21.0896 33.4563L39.8052 14.7406C40.2469 14.299 40.7714 14.0781 41.3787 14.0781C41.986 14.0781 42.5104 14.299 42.9521 14.7406C43.3938 15.1823 43.6146 15.7068 43.6146 16.3141C43.6146 16.9214 43.3938 17.4458 42.9521 17.8875L22.6354 38.2042C22.1938 38.6458 21.6785 38.8667 21.0896 38.8667C20.5007 38.8667 19.9854 38.6458 19.5438 38.2042L10.0479 28.7083C9.60626 28.2667 9.39463 27.7422 9.41303 27.1349C9.43143 26.5276 9.66147 26.0031 10.1031 25.5615C10.5448 25.1198 11.0693 24.899 11.6766 24.899C12.2839 24.899 12.8083 25.1198 13.25 25.5615L21.0896 33.4563Z" fill="#79C5FC"/>
</svg>
