<svg width="62" height="62" viewBox="0 0 62 62" fill="none" xmlns="http://www.w3.org/2000/svg">
<path d="M50.375 7.75H11.625C10.5973 7.75 9.61166 8.15826 8.88496 8.88496C8.15826 9.61166 7.75 10.5973 7.75 11.625V50.375C7.75 51.4027 8.15826 52.3883 8.88496 53.115C9.61166 53.8417 10.5973 54.25 11.625 54.25H50.375C51.4027 54.25 52.3883 53.8417 53.115 53.115C53.8417 52.3883 54.25 51.4027 54.25 50.375V11.625C54.25 10.5973 53.8417 9.61166 53.115 8.88496C52.3883 8.15826 51.4027 7.75 50.375 7.75ZM42.0583 26.5583L28.4958 40.1208C28.3158 40.3009 28.1022 40.4438 27.8669 40.5413C27.6317 40.6388 27.3796 40.689 27.125 40.689C26.8704 40.689 26.6183 40.6388 26.3831 40.5413C26.1478 40.4438 25.9342 40.3009 25.7542 40.1208L19.9417 34.3083C19.5782 33.9447 19.3739 33.4516 19.3739 32.9375C19.3739 32.4234 19.5782 31.9303 19.9417 31.5667C20.3053 31.2032 20.7984 30.9989 21.3125 30.9989C21.8266 30.9989 22.3197 31.2032 22.6833 31.5667L27.125 36.0109L39.3167 23.8167C39.4967 23.6367 39.7104 23.4939 39.9456 23.3965C40.1808 23.2991 40.4329 23.2489 40.6875 23.2489C40.9421 23.2489 41.1942 23.2991 41.4294 23.3965C41.6646 23.4939 41.8783 23.6367 42.0583 23.8167C42.2383 23.9967 42.3811 24.2104 42.4785 24.4456C42.5759 24.6808 42.6261 24.9329 42.6261 25.1875C42.6261 25.4421 42.5759 25.6942 42.4785 25.9294C42.3811 26.1646 42.2383 26.3783 42.0583 26.5583Z" fill="#E9E8E8"/>
</svg>
