<svg width="62" height="62" viewBox="0 0 62 62" fill="none" xmlns="http://www.w3.org/2000/svg">
<path d="M10.2542 20.7454C10.0741 20.5654 9.93117 20.3517 9.83366 20.1165C9.73616 19.8813 9.68597 19.6292 9.68597 19.3746C9.68597 19.12 9.73616 18.8678 9.83366 18.6326C9.93117 18.3974 10.0741 18.1837 10.2542 18.0038L18.0042 10.2538C18.2752 9.98252 18.6206 9.79774 18.9966 9.72286C19.3726 9.64797 19.7624 9.68635 20.1167 9.83312C20.4709 9.97989 20.7736 10.2285 20.9865 10.5474C21.1993 10.8663 21.3128 11.2411 21.3125 11.6246V17.4371H50.375C50.8889 17.4371 51.3817 17.6412 51.745 18.0046C52.1084 18.3679 52.3125 18.8607 52.3125 19.3746C52.3125 19.8884 52.1084 20.3812 51.745 20.7446C51.3817 21.1079 50.8889 21.3121 50.375 21.3121H21.3125V27.1246C21.3128 27.508 21.1993 27.8829 20.9865 28.2018C20.7736 28.5207 20.4709 28.7693 20.1167 28.916C19.7624 29.0628 19.3726 29.1012 18.9966 29.0263C18.6206 28.9514 18.2752 28.7666 18.0042 28.4954L10.2542 20.7454ZM51.7458 41.2538L43.9958 33.5038C43.7248 33.2325 43.3794 33.0477 43.0034 32.9729C42.6274 32.898 42.2376 32.9363 41.8833 33.0831C41.5291 33.2299 41.2264 33.4785 41.0135 33.7974C40.8007 34.1163 40.6872 34.4911 40.6875 34.8746V40.6871H11.625C11.1111 40.6871 10.6183 40.8912 10.255 41.2546C9.89163 41.6179 9.6875 42.1107 9.6875 42.6246C9.6875 43.1384 9.89163 43.6312 10.255 43.9946C10.6183 44.3579 11.1111 44.5621 11.625 44.5621H40.6875V50.3746C40.6872 50.758 40.8007 51.1329 41.0135 51.4518C41.2264 51.7707 41.5291 52.0193 41.8833 52.166C42.2376 52.3128 42.6274 52.3512 43.0034 52.2763C43.3794 52.2014 43.7248 52.0166 43.9958 51.7454L51.7458 43.9954C51.9259 43.8154 52.0688 43.6017 52.1663 43.3665C52.2638 43.1313 52.314 42.8792 52.314 42.6246C52.314 42.37 52.2638 42.1178 52.1663 41.8826C52.0688 41.6474 51.9259 41.4337 51.7458 41.2538Z" fill="white"/>
</svg>
