<svg width="62" height="62" viewBox="0 0 62 62" fill="none" xmlns="http://www.w3.org/2000/svg">
<path d="M58.125 23.25C58.125 23.7639 57.9208 24.2567 57.5575 24.62C57.1941 24.9834 56.7013 25.1875 56.1875 25.1875H52.3125V29.0625C52.3125 29.5764 52.1083 30.0692 51.745 30.4325C51.3816 30.7959 50.8888 31 50.375 31C49.8611 31 49.3683 30.7959 49.005 30.4325C48.6416 30.0692 48.4375 29.5764 48.4375 29.0625V25.1875H44.5625C44.0486 25.1875 43.5558 24.9834 43.1925 24.62C42.8291 24.2567 42.625 23.7639 42.625 23.25C42.625 22.7361 42.8291 22.2433 43.1925 21.88C43.5558 21.5166 44.0486 21.3125 44.5625 21.3125H48.4375V17.4375C48.4375 16.9236 48.6416 16.4308 49.005 16.0675C49.3683 15.7041 49.8611 15.5 50.375 15.5C50.8888 15.5 51.3816 15.7041 51.745 16.0675C52.1083 16.4308 52.3125 16.9236 52.3125 17.4375V21.3125H56.1875C56.7013 21.3125 57.1941 21.5166 57.5575 21.88C57.9208 22.2433 58.125 22.7361 58.125 23.25ZM34.875 13.5625H36.8125V15.5C36.8125 16.0139 37.0166 16.5067 37.38 16.87C37.7433 17.2334 38.2361 17.4375 38.75 17.4375C39.2638 17.4375 39.7566 17.2334 40.12 16.87C40.4833 16.5067 40.6875 16.0139 40.6875 15.5V13.5625H42.625C43.1388 13.5625 43.6316 13.3584 43.995 12.995C44.3583 12.6317 44.5625 12.1389 44.5625 11.625C44.5625 11.1111 44.3583 10.6183 43.995 10.255C43.6316 9.89163 43.1388 9.6875 42.625 9.6875H40.6875V7.75C40.6875 7.23614 40.4833 6.74333 40.12 6.37998C39.7566 6.01663 39.2638 5.8125 38.75 5.8125C38.2361 5.8125 37.7433 6.01663 37.38 6.37998C37.0166 6.74333 36.8125 7.23614 36.8125 7.75V9.6875H34.875C34.3611 9.6875 33.8683 9.89163 33.505 10.255C33.1416 10.6183 32.9375 11.1111 32.9375 11.625C32.9375 12.1389 33.1416 12.6317 33.505 12.995C33.8683 13.3584 34.3611 13.5625 34.875 13.5625ZM50.6511 36.408C47.2145 37.087 43.6636 36.9091 40.3121 35.8901C36.9606 34.8711 33.9117 33.0423 31.4347 30.5653C28.9577 28.0883 27.1289 25.0394 26.1099 21.6879C25.0909 18.3364 24.913 14.7855 25.5919 11.3489C25.6584 11.0117 25.634 10.6628 25.5212 10.3381C25.4084 10.0134 25.2112 9.72453 24.9499 9.50119C24.6886 9.27785 24.3726 9.12805 24.0343 9.06715C23.6959 9.00626 23.3475 9.03647 23.0247 9.15469C19.3559 10.4962 16.0843 12.7406 13.5119 15.6804C10.9395 18.6203 9.14936 22.1609 8.3067 25.9754C7.46405 29.7898 7.59609 33.7551 8.69061 37.505C9.78514 41.2549 11.8069 44.6686 14.5691 47.4309C17.3313 50.1931 20.745 52.2148 24.495 53.3094C28.2449 54.4039 32.2102 54.5359 36.0246 53.6933C39.839 52.8506 43.3797 51.0605 46.3195 48.4881C49.2594 45.9157 51.5037 42.644 52.8453 38.9752C52.9635 38.6525 52.9937 38.304 52.9328 37.9657C52.8719 37.6274 52.7221 37.3114 52.4988 37.0501C52.2754 36.7888 51.9866 36.5916 51.6619 36.4788C51.3372 36.3659 50.9883 36.3415 50.6511 36.408Z" fill="#E9E8E8"/>
</svg>
