<svg width="62" height="62" viewBox="0 0 62 62" fill="none" xmlns="http://www.w3.org/2000/svg">
<path d="M25.1318 45.0324C25.0373 45.4077 22.676 54.25 9.68747 54.25C9.17362 54.25 8.68081 54.0459 8.31746 53.6825C7.9541 53.3192 7.74997 52.8264 7.74997 52.3125C7.74997 39.324 16.5922 36.9627 16.9676 36.8682C17.4664 36.7436 17.9942 36.8222 18.435 37.0868C18.8758 37.3514 19.1935 37.7802 19.3181 38.279C19.4427 38.7777 19.364 39.3056 19.0995 39.7463C18.8349 40.1871 18.4061 40.5048 17.9073 40.6294C17.6894 40.6899 12.4775 42.2133 11.717 50.283C19.7867 49.5225 21.3125 44.3203 21.3754 44.0781C21.5039 43.58 21.825 43.1533 22.268 42.8919C22.7111 42.6306 23.2399 42.5559 23.738 42.6843C24.2361 42.8128 24.6628 43.1339 24.9242 43.577C25.1856 44.02 25.2602 44.5488 25.1318 45.0469V45.0324ZM47.6552 28.7089L46.5 29.8642V43.9909C46.5029 44.5018 46.4041 45.0081 46.2095 45.4804C46.015 45.9527 45.7284 46.3816 45.3665 46.7422L37.0547 55.0492C36.6962 55.4102 36.2698 55.6967 35.8001 55.892C35.3304 56.0874 34.8267 56.1878 34.3179 56.1875C33.8981 56.1874 33.481 56.1195 33.0828 55.9865C32.3991 55.7604 31.7922 55.3475 31.3309 54.7945C30.8695 54.2416 30.572 53.5706 30.472 52.8574L29.1715 43.5356L18.4643 32.8285L9.1474 31.528C8.43329 31.4278 7.76129 31.1304 7.20701 30.6692C6.65272 30.2079 6.23812 29.6012 6.00987 28.9171C5.78161 28.2331 5.74874 27.499 5.91496 26.7973C6.08119 26.0956 6.4399 25.4543 6.95076 24.9453L15.2578 16.6334C15.6183 16.2716 16.0473 15.985 16.5196 15.7904C16.9919 15.5959 17.4982 15.4971 18.009 15.5H32.1358L33.2911 14.3448C39.7526 7.88564 47.5365 7.60712 50.5857 7.78876C51.5304 7.84617 52.4214 8.24734 53.0907 8.91659C53.7599 9.58583 54.1611 10.4769 54.2185 11.4216C54.3953 14.461 54.1168 22.2474 47.6576 28.7089H47.6552ZM28.2608 19.375H18.009L9.68747 27.6917L18.6847 28.9463L28.2608 19.375ZM42.625 33.7392L33.0513 43.3128L34.3107 52.3125L42.625 43.9909V33.7392Z" fill="#E9E8E8"/>
</svg>
