<svg width="62" height="62" viewBox="0 0 62 62" fill="none" xmlns="http://www.w3.org/2000/svg">
<path d="M38.75 3.875C35.6919 3.87774 32.6779 4.60369 29.9539 5.99356C27.2299 7.38343 24.8732 9.39783 23.0763 11.8723C21.2794 14.3467 20.0932 17.2111 19.6145 20.2315C19.1358 23.2518 19.3782 26.3426 20.322 29.2514L6.37922 43.1917C6.19935 43.3718 6.05673 43.5855 5.95949 43.8207C5.86225 44.0559 5.8123 44.308 5.8125 44.5625V54.25C5.8125 54.7639 6.01663 55.2567 6.37998 55.62C6.74333 55.9834 7.23614 56.1875 7.75 56.1875H17.4375C17.9514 56.1875 18.4442 55.9834 18.8075 55.62C19.1709 55.2567 19.375 54.7639 19.375 54.25V50.375H23.25C23.7639 50.375 24.2567 50.1709 24.62 49.8075C24.9834 49.4442 25.1875 48.9514 25.1875 48.4375V44.5625H29.0625C29.317 44.5627 29.5691 44.5128 29.8043 44.4155C30.0395 44.3183 30.2532 44.1756 30.4333 43.9958L32.7486 41.678C35.4115 42.5426 38.2301 42.8198 41.0105 42.4905C43.7908 42.1612 46.4667 41.2333 48.854 39.7706C51.2412 38.3079 53.2831 36.3452 54.8391 34.0176C56.395 31.6901 57.4281 29.0529 57.8671 26.2878C58.306 23.5227 58.1405 20.6953 57.3819 18.0003C56.6233 15.3053 55.2897 12.8067 53.4728 10.6766C51.6559 8.54643 49.3989 6.83538 46.8573 5.66121C44.3156 4.48704 41.5497 3.87765 38.75 3.875ZM43.5938 22.2812C42.8273 22.2812 42.0782 22.054 41.4409 21.6282C40.8037 21.2024 40.307 20.5972 40.0137 19.8891C39.7204 19.1811 39.6437 18.402 39.7932 17.6503C39.9427 16.8986 40.3118 16.2081 40.8537 15.6662C41.3956 15.1243 42.0861 14.7552 42.8378 14.6057C43.5895 14.4562 44.3686 14.5329 45.0766 14.8262C45.7847 15.1195 46.3899 15.6162 46.8157 16.2534C47.2415 16.8907 47.4688 17.6398 47.4688 18.4062C47.4688 19.434 47.0605 20.4196 46.3338 21.1463C45.6071 21.873 44.6215 22.2812 43.5938 22.2812Z" fill="#E9E8E8"/>
</svg>
