<svg width="62" height="62" viewBox="0 0 62 62" fill="none" xmlns="http://www.w3.org/2000/svg">
<path d="M19.9417 28.4958C19.6704 28.2248 19.4857 27.8794 19.4108 27.5034C19.3359 27.1274 19.3743 26.7376 19.521 26.3833C19.6678 26.0291 19.9164 25.7264 20.2353 25.5135C20.5542 25.3007 20.9291 25.1872 21.3125 25.1875H29.0625V9.6875C29.0625 9.17364 29.2666 8.68083 29.63 8.31748C29.9933 7.95413 30.4861 7.75 31 7.75C31.5139 7.75 32.0067 7.95413 32.37 8.31748C32.7334 8.68083 32.9375 9.17364 32.9375 9.6875V25.1875H40.6875C41.0709 25.1872 41.4458 25.3007 41.7647 25.5135C42.0836 25.7264 42.3322 26.0291 42.479 26.3833C42.6257 26.7376 42.6641 27.1274 42.5892 27.5034C42.5143 27.8794 42.3296 28.2248 42.0583 28.4958L32.3708 38.1833C32.1908 38.3634 31.9772 38.5063 31.7419 38.6038C31.5067 38.7013 31.2546 38.7515 31 38.7515C30.7454 38.7515 30.4933 38.7013 30.2581 38.6038C30.0228 38.5063 29.8092 38.3634 29.6292 38.1833L19.9417 28.4958ZM52.3125 34.875C51.7986 34.875 51.3058 35.0791 50.9425 35.4425C50.5791 35.8058 50.375 36.2986 50.375 36.8125V50.375H11.625V36.8125C11.625 36.2986 11.4209 35.8058 11.0575 35.4425C10.6942 35.0791 10.2014 34.875 9.6875 34.875C9.17364 34.875 8.68083 35.0791 8.31748 35.4425C7.95413 35.8058 7.75 36.2986 7.75 36.8125V50.375C7.75 51.4027 8.15826 52.3883 8.88496 53.115C9.61166 53.8417 10.5973 54.25 11.625 54.25H50.375C51.4027 54.25 52.3883 53.8417 53.115 53.115C53.8417 52.3883 54.25 51.4027 54.25 50.375V36.8125C54.25 36.2986 54.0459 35.8058 53.6825 35.4425C53.3192 35.0791 52.8264 34.875 52.3125 34.875Z" fill="#E9E8E8"/>
</svg>
