<svg width="62" height="62" viewBox="0 0 62 62" fill="none" xmlns="http://www.w3.org/2000/svg">
<path d="M40.1498 54.25H50.375C51.4027 54.25 52.3883 53.8417 53.115 53.115C53.8417 52.3883 54.25 51.4027 54.25 50.375V41.2566C54.2483 40.9389 54.1686 40.6264 54.0177 40.3468C53.8669 40.0672 53.6495 39.8289 53.3849 39.653C53.1203 39.4772 52.8164 39.3691 52.5002 39.3383C52.1839 39.3075 51.865 39.355 51.5714 39.4766C50.8848 39.7602 50.1491 39.9058 49.4062 39.9052C46.2021 39.9052 43.5938 37.217 43.5938 33.9159C43.5938 30.6149 46.2021 27.9266 49.4062 27.9266C50.1491 27.9261 50.8848 28.0717 51.5714 28.3553C51.8665 28.4775 52.1872 28.5248 52.505 28.4931C52.8228 28.4613 53.1278 28.3515 53.393 28.1734C53.6581 27.9953 53.875 27.7545 54.0246 27.4723C54.1741 27.19 54.2515 26.8752 54.25 26.5559V17.4375C54.25 16.4098 53.8417 15.4242 53.115 14.6975C52.3883 13.9708 51.4027 13.5625 50.375 13.5625H41.603C41.639 13.2408 41.6568 12.9174 41.6562 12.5938C41.6562 10.2814 40.7377 8.06375 39.1026 6.42866C37.4675 4.79358 35.2499 3.875 32.9375 3.875C30.6251 3.875 28.4075 4.79358 26.7724 6.42866C25.1373 8.06375 24.2188 10.2814 24.2188 12.5938C24.2182 12.9174 24.236 13.2408 24.272 13.5625H15.5C14.4723 13.5625 13.4867 13.9708 12.76 14.6975C12.0333 15.4242 11.625 16.4098 11.625 17.4375V25.2408C11.3033 25.2047 10.9799 25.1869 10.6562 25.1875C8.34389 25.1875 6.12625 26.1061 4.49116 27.7412C2.85608 29.3762 1.9375 31.5939 1.9375 33.9062C1.9375 36.2186 2.85608 38.4363 4.49116 40.0713C6.12625 41.7064 8.34389 42.625 10.6562 42.625C10.9799 42.6256 11.3033 42.6078 11.625 42.5717V50.375C11.625 51.4027 12.0333 52.3883 12.76 53.115C13.4867 53.8417 14.4723 54.25 15.5 54.25H25.7252" fill="#E9E8E8"/>
</svg>
