<svg width="62" height="62" viewBox="0 0 62 62" fill="none" xmlns="http://www.w3.org/2000/svg">
<path d="M56.994 25.1884L44.0442 38.1818C45.1486 41.2503 45.6063 46.3895 40.8497 52.713C40.5171 53.1577 40.0923 53.5252 39.6046 53.7907C39.1168 54.0561 38.5774 54.2131 38.0234 54.2509C37.9314 54.2509 37.8418 54.2509 37.7497 54.2509C37.2406 54.251 36.7363 54.1507 36.2659 53.9558C35.7955 53.7609 35.3681 53.4752 35.0082 53.115L23.3202 41.415L12.9958 51.7467C12.6322 52.1102 12.1391 52.3145 11.625 52.3145C11.1108 52.3145 10.6178 52.1102 10.2542 51.7467C9.89064 51.3831 9.6864 50.89 9.6864 50.3759C9.6864 49.8618 9.89064 49.3687 10.2542 49.0051L20.5859 38.6807L8.88826 26.983C8.50376 26.598 8.20465 26.1364 8.01039 25.6282C7.81613 25.1199 7.73108 24.5764 7.76078 24.0332C7.79048 23.4899 7.93427 22.9589 8.18277 22.4749C8.43127 21.9908 8.77893 21.5646 9.2031 21.2238C15.3595 16.2565 21.2519 17.2325 23.8312 18.0414L36.8125 5.01418C37.1723 4.65426 37.5995 4.36875 38.0697 4.17396C38.5399 3.97917 39.0439 3.87891 39.5528 3.87891C40.0618 3.87891 40.5657 3.97917 41.0359 4.17396C41.5061 4.36875 41.9333 4.65426 42.2932 5.01418L56.9915 19.7101C57.718 20.4364 58.1264 21.4215 58.1268 22.4488C58.1273 23.476 57.7198 24.4614 56.994 25.1884Z" fill="#E9E8E8"/>
</svg>
