<svg width="86" height="82" viewBox="0 0 86 82" fill="none" xmlns="http://www.w3.org/2000/svg">
<path d="M76.7817 70.4687C76.5485 70.8584 76.213 71.1819 75.809 71.4068C75.405 71.6317 74.9467 71.7501 74.4802 71.75H10.7153C10.2492 71.7495 9.79134 71.6308 9.38782 71.4057C8.98431 71.1806 8.6493 70.8571 8.41643 70.4676C8.18356 70.0781 8.06104 69.6364 8.06116 69.1868C8.06128 68.7372 8.18404 68.2956 8.41711 67.9062C13.4751 59.4724 21.2697 53.4249 30.3662 50.5581C25.8667 47.9746 22.3708 44.0381 20.4155 39.3529C18.4602 34.6678 18.1535 29.4931 19.5426 24.6235C20.9316 19.754 23.9396 15.4589 28.1046 12.3978C32.2696 9.33663 37.3613 7.67877 42.5977 7.67877C47.8342 7.67877 52.9259 9.33663 57.0909 12.3978C61.2559 15.4589 64.2639 19.754 65.6529 24.6235C67.042 29.4931 66.7353 34.6678 64.78 39.3529C62.8247 44.0381 59.3288 47.9746 54.8293 50.5581C63.9258 53.4249 71.7204 59.4724 76.7784 67.9062C77.0121 68.2955 77.1354 68.7372 77.136 69.187C77.1366 69.6369 77.0144 70.0789 76.7817 70.4687Z" fill="white"/>
</svg>
