<svg width="88" height="84" viewBox="0 0 88 84" fill="none" xmlns="http://www.w3.org/2000/svg">
<path d="M60.5169 76.125C60.5169 76.8212 60.2301 77.4889 59.7197 77.9811C59.2093 78.4734 58.517 78.75 57.7952 78.75H30.5785C29.8567 78.75 29.1644 78.4734 28.654 77.9811C28.1436 77.4889 27.8568 76.8212 27.8568 76.125C27.8568 75.4288 28.1436 74.7611 28.654 74.2688C29.1644 73.7766 29.8567 73.5 30.5785 73.5H57.7952C58.517 73.5 59.2093 73.7766 59.7197 74.2688C60.2301 74.7611 60.5169 75.4288 60.5169 76.125ZM74.1252 34.125C74.137 38.501 73.112 42.8218 71.1285 46.7575C69.1451 50.6932 66.2556 54.1399 62.6806 56.8345C62.0121 57.3287 61.4697 57.9638 61.0947 58.6911C60.7196 59.4185 60.522 60.2189 60.5169 61.0312V63C60.5169 64.3924 59.9434 65.7277 58.9226 66.7123C57.9017 67.6969 56.5172 68.25 55.0735 68.25H33.3002C31.8565 68.25 30.472 67.6969 29.4511 66.7123C28.4303 65.7277 27.8568 64.3924 27.8568 63V61.0312C27.8563 60.2286 27.6649 59.4368 27.2975 58.7167C26.9301 57.9966 26.3963 57.3673 25.7373 56.8772C22.1712 54.1985 19.2837 50.7725 17.2933 46.8586C15.3028 42.9446 14.2616 38.6452 14.2485 34.2858C14.16 18.6473 27.2649 5.62405 43.4656 5.24999C47.4574 5.15721 51.4282 5.83554 55.1441 7.24505C58.8601 8.65456 62.2462 10.7668 65.103 13.4573C67.9599 16.1479 70.2299 19.3625 71.7793 22.9119C73.3288 26.4613 74.1264 30.2738 74.1252 34.125ZM63.2011 31.0603C62.4954 27.2583 60.5988 23.7561 57.7668 21.0252C54.9347 18.2944 51.3032 16.4659 47.361 15.7861C47.0085 15.7288 46.6477 15.739 46.2993 15.8161C45.9509 15.8933 45.6217 16.0359 45.3304 16.2358C45.0391 16.4356 44.7915 16.6889 44.6018 16.9811C44.412 17.2732 44.2837 17.5986 44.2243 17.9386C44.1649 18.2786 44.1754 18.6265 44.2554 18.9625C44.3354 19.2986 44.4833 19.6161 44.6905 19.897C44.8978 20.178 45.1603 20.4168 45.4633 20.5998C45.7662 20.7829 46.1035 20.9066 46.456 20.9639C52.0933 21.8794 56.8766 26.4928 57.8326 31.9397C57.9403 32.551 58.269 33.1059 58.7603 33.5059C59.2516 33.9059 59.8739 34.1252 60.5169 34.125C60.6707 34.1241 60.8242 34.112 60.9762 34.0889C61.6876 33.9718 62.3216 33.5869 62.7389 33.0189C63.1561 32.451 63.3224 31.7465 63.2011 31.0603Z" fill="white"/>
</svg>
