<svg width="88" height="84" viewBox="0 0 88 84" fill="none" xmlns="http://www.w3.org/2000/svg">
<g clip-path="url(#clip0_1_4107)">
<path d="M60.1062 68.0006C61.9837 67.2872 63.8032 66.4393 65.5496 65.4642V78.75C65.5496 79.4462 65.2628 80.1139 64.7524 80.6061C64.242 81.0984 63.5497 81.375 62.8279 81.375C62.1061 81.375 61.4138 81.0984 60.9034 80.6061C60.393 80.1139 60.1062 79.4462 60.1062 78.75V68.0006ZM64.1071 38.9845L45.0554 29.1834C44.4198 28.8703 43.682 28.8105 43.0011 29.017C42.3202 29.2234 41.7507 29.6796 41.4152 30.2872C41.0796 30.8948 41.005 31.6052 41.2074 32.2654C41.4097 32.9255 41.8729 33.4826 42.497 33.8165L58.4052 42L64.1887 39.0272L64.1071 38.9845ZM85.8805 29.1834L45.0554 8.18343C44.6616 7.9812 44.2223 7.87543 43.7762 7.87543C43.3301 7.87543 42.8908 7.9812 42.497 8.18343L1.67197 29.1834C1.23651 29.4072 0.872342 29.741 0.618408 30.1491C0.364473 30.5571 0.230331 31.0241 0.230331 31.5C0.230331 31.9759 0.364473 32.4428 0.618408 32.8509C0.872342 33.2589 1.23651 33.5927 1.67197 33.8165L11.1162 38.6761V54.5639C11.1133 55.8533 11.6053 57.0981 12.4974 58.0584C16.9541 62.8458 26.9393 70.875 43.7762 70.875C49.3589 70.9195 54.8998 69.9442 60.1062 68.0006V42.8761L58.4052 42L43.7762 49.5239L15.1408 34.7812L8.7347 31.5L43.7762 13.4761L78.8177 31.5L72.4286 34.7812H72.4082L64.1887 39.0272C64.6026 39.2576 64.9462 39.5891 65.1851 39.9882C65.424 40.3874 65.5497 40.8402 65.5496 41.3011V65.4642C69.0987 63.4882 72.3058 60.9895 75.055 58.0584C75.9471 57.0981 76.4391 55.8533 76.4363 54.5639V38.6761L85.8805 33.8165C86.3159 33.5927 86.6801 33.2589 86.934 32.8509C87.1879 32.4428 87.3221 31.9759 87.3221 31.5C87.3221 31.0241 87.1879 30.5571 86.934 30.1491C86.6801 29.741 86.3159 29.4072 85.8805 29.1834Z" fill="white"/>
</g>
<defs>
<clipPath id="clip0_1_4107">
<rect width="87.0935" height="84" fill="white" transform="translate(0.229462)"/>
</clipPath>
</defs>
</svg>
