<svg width="125" height="120" viewBox="0 0 125 120" fill="none" xmlns="http://www.w3.org/2000/svg">
<path d="M77.918 26.25V71.25C77.918 72.2446 77.5084 73.1984 76.7792 73.9017C76.05 74.6049 75.0611 75 74.0299 75H54.5894C53.5582 75 52.5693 74.6049 51.8401 73.9017C51.1109 73.1984 50.7013 72.2446 50.7013 71.25V26.25C50.7013 25.2554 51.1109 24.3016 51.8401 23.5984C52.5693 22.8951 53.5582 22.5 54.5894 22.5H74.0299C75.0611 22.5 76.05 22.8951 76.7792 23.5984C77.5084 24.3016 77.918 25.2554 77.918 26.25ZM109.023 22.5H89.5823C88.5511 22.5 87.5622 22.8951 86.833 23.5984C86.1038 24.3016 85.6942 25.2554 85.6942 26.25V48.75C85.6942 49.7446 86.1038 50.6984 86.833 51.4016C87.5622 52.1049 88.5511 52.5 89.5823 52.5H109.023C110.054 52.5 111.043 52.1049 111.772 51.4016C112.501 50.6984 112.911 49.7446 112.911 48.75V26.25C112.911 25.2554 112.501 24.3016 111.772 23.5984C111.043 22.8951 110.054 22.5 109.023 22.5ZM109.023 60H89.5823C88.5511 60 87.5622 60.3951 86.833 61.0983C86.1038 61.8016 85.6942 62.7554 85.6942 63.75V82.5C85.6942 84.4891 86.5135 86.3968 87.9718 87.8033C89.4301 89.2098 91.408 90 93.4704 90H105.135C107.197 90 109.175 89.2098 110.633 87.8033C112.092 86.3968 112.911 84.4891 112.911 82.5V63.75C112.911 62.7554 112.501 61.8016 111.772 61.0983C111.043 60.3951 110.054 60 109.023 60ZM39.037 22.5H19.5965C18.5653 22.5 17.5763 22.8951 16.8472 23.5984C16.118 24.3016 15.7084 25.2554 15.7084 26.25V48.75C15.7084 49.7446 16.118 50.6984 16.8472 51.4016C17.5763 52.1049 18.5653 52.5 19.5965 52.5H39.037C40.0682 52.5 41.0571 52.1049 41.7863 51.4016C42.5154 50.6984 42.9251 49.7446 42.9251 48.75V26.25C42.9251 25.2554 42.5154 24.3016 41.7863 23.5984C41.0571 22.8951 40.0682 22.5 39.037 22.5ZM39.037 60H19.5965C18.5653 60 17.5763 60.3951 16.8472 61.0983C16.118 61.8016 15.7084 62.7554 15.7084 63.75V97.5C15.7084 99.4891 16.5276 101.397 17.986 102.803C19.4443 104.21 21.4222 105 23.4846 105H35.1489C37.2113 105 39.1892 104.21 40.6475 102.803C42.1058 101.397 42.9251 99.4891 42.9251 97.5V63.75C42.9251 62.7554 42.5154 61.8016 41.7863 61.0983C41.0571 60.3951 40.0682 60 39.037 60Z" fill="white"/>
</svg>
