<svg width="61" height="59" viewBox="0 0 61 59" fill="none" xmlns="http://www.w3.org/2000/svg">
<path d="M19.6201 27.117C19.3532 26.8591 19.1714 26.5304 19.0977 26.1726C19.024 25.8148 19.0618 25.4438 19.2062 25.1067C19.3506 24.7696 19.5952 24.4816 19.9089 24.279C20.2227 24.0764 20.5915 23.9685 20.9688 23.9688H28.5938V9.21875C28.5938 8.72976 28.7946 8.26079 29.1521 7.91502C29.5096 7.56925 29.9944 7.375 30.5 7.375C31.0056 7.375 31.4904 7.56925 31.8479 7.91502C32.2054 8.26079 32.4062 8.72976 32.4062 9.21875V23.9688H40.0312C40.4085 23.9685 40.7773 24.0764 41.0911 24.279C41.4049 24.4816 41.6494 24.7696 41.7938 25.1067C41.9382 25.4438 41.976 25.8148 41.9023 26.1726C41.8286 26.5304 41.6468 26.8591 41.3799 27.117L31.8487 36.3357C31.6716 36.5071 31.4614 36.6431 31.23 36.7359C30.9986 36.8287 30.7505 36.8764 30.5 36.8764C30.2495 36.8764 30.0014 36.8287 29.77 36.7359C29.5386 36.6431 29.3284 36.5071 29.1513 36.3357L19.6201 27.117ZM51.4688 33.1875C50.9632 33.1875 50.4783 33.3818 50.1208 33.7275C49.7633 34.0733 49.5625 34.5423 49.5625 35.0312V47.9375H11.4375V35.0312C11.4375 34.5423 11.2367 34.0733 10.8792 33.7275C10.5217 33.3818 10.0368 33.1875 9.53125 33.1875C9.02568 33.1875 8.54082 33.3818 8.18333 33.7275C7.82584 34.0733 7.625 34.5423 7.625 35.0312V47.9375C7.625 48.9155 8.02667 49.8534 8.74166 50.545C9.45664 51.2365 10.4264 51.625 11.4375 51.625H49.5625C50.5736 51.625 51.5434 51.2365 52.2583 50.545C52.9733 49.8534 53.375 48.9155 53.375 47.9375V35.0312C53.375 34.5423 53.1742 34.0733 52.8167 33.7275C52.4592 33.3818 51.9743 33.1875 51.4688 33.1875Z" fill="white"/>
</svg>
