<svg width="70" height="70" viewBox="0 0 70 70" fill="none" xmlns="http://www.w3.org/2000/svg">
<path d="M17.5328 40.4141C17.5402 40.5622 17.5174 40.7104 17.4658 40.8494C17.4142 40.9885 17.3348 41.1156 17.2325 41.2231C17.1301 41.3305 17.007 41.416 16.8706 41.4743C16.7343 41.5327 16.5874 41.5627 16.4391 41.5625H4.375C3.88127 41.5632 3.4018 41.3969 3.01457 41.0906C2.62735 40.7843 2.35513 40.356 2.24219 39.8754C2.17186 39.5464 2.1751 39.2059 2.25168 38.8784C2.32826 38.5508 2.47628 38.2442 2.68516 37.9805C4.6151 35.421 7.17579 33.4058 10.1172 32.1316C8.82581 30.9542 7.83537 29.4845 7.2288 27.8456C6.62223 26.2067 6.41721 24.4463 6.63089 22.7118C6.84458 20.9774 7.47076 19.3194 8.45698 17.8767C9.4432 16.4341 10.7608 15.2487 12.2993 14.4199C13.8378 13.5912 15.5526 13.1431 17.2999 13.1133C19.0472 13.0836 20.7762 13.4729 22.3421 14.2487C23.908 15.0245 25.2652 16.1643 26.3 17.5725C27.3348 18.9807 28.0172 20.6164 28.2898 22.3426C28.3251 22.5747 28.2835 22.812 28.1714 23.0183C28.0594 23.2246 27.883 23.3887 27.6691 23.4855C24.635 24.8882 22.0655 27.1295 20.2636 29.9449C18.4618 32.7603 17.5029 36.0324 17.5 39.375C17.5 39.725 17.5 40.0695 17.5328 40.4141ZM67.2984 37.9777C65.373 35.4213 62.8181 33.4072 59.8828 32.1316C61.1742 30.9542 62.1646 29.4845 62.7712 27.8456C63.3778 26.2067 63.5828 24.4463 63.3691 22.7118C63.1554 20.9774 62.5292 19.3194 61.543 17.8767C60.5568 16.4341 59.2392 15.2487 57.7007 14.4199C56.1622 13.5912 54.4474 13.1431 52.7001 13.1133C50.9528 13.0836 49.2238 13.4729 47.6579 14.2487C46.092 15.0245 44.7348 16.1643 43.7 17.5725C42.6652 18.9807 41.9828 20.6164 41.7101 22.3426C41.6749 22.5747 41.7165 22.812 41.8286 23.0183C41.9406 23.2246 42.117 23.3887 42.3309 23.4855C45.3649 24.8882 47.9345 27.1295 49.7363 29.9449C51.5382 32.7603 52.4971 36.0324 52.5 39.375C52.5 39.725 52.5 40.0695 52.4672 40.4141C52.4598 40.5622 52.4826 40.7104 52.5342 40.8494C52.5858 40.9885 52.6652 41.1156 52.7675 41.2231C52.8698 41.3305 52.9929 41.416 53.1293 41.4743C53.2657 41.5327 53.4126 41.5627 53.5609 41.5625H65.625C66.1187 41.5632 66.5982 41.3969 66.9854 41.0906C67.3726 40.7843 67.6449 40.356 67.7578 39.8754C67.8286 39.5458 67.8253 39.2046 67.7482 38.8765C67.6711 38.5483 67.5222 38.2413 67.3121 37.9777H67.2984ZM42.9625 49.7848C45.1406 48.1167 46.7412 45.8081 47.5394 43.1833C48.3376 40.5586 48.2933 37.7497 47.4126 35.1514C46.532 32.5532 44.8593 30.2962 42.6297 28.6977C40.4001 27.0992 37.7257 26.2395 34.9822 26.2395C32.2388 26.2395 29.5643 27.0992 27.3347 28.6977C25.1051 30.2962 23.4324 32.5532 22.5518 35.1514C21.6712 37.7497 21.6268 40.5586 22.4251 43.1833C23.2233 45.8081 24.8239 48.1167 27.0019 49.7848C23.137 51.4594 19.9097 54.3273 17.7926 57.9687C17.6006 58.3013 17.4995 58.6786 17.4995 59.0626C17.4995 59.4466 17.6006 59.8239 17.7927 60.1565C17.9848 60.489 18.261 60.7651 18.5936 60.9571C18.9262 61.1491 19.3035 61.2501 19.6875 61.25H50.3125C50.6965 61.2501 51.0738 61.1491 51.4064 60.9571C51.739 60.7651 52.0152 60.489 52.2073 60.1565C52.3993 59.8239 52.5005 59.4466 52.5005 59.0626C52.5005 58.6786 52.3994 58.3013 52.2074 57.9687C50.0857 54.3249 46.8524 51.4568 42.9816 49.7848H42.9625Z" fill="white"/>
</svg>
